<svg width="32" height="32" viewBox="0 0 32 32" fill="none" xmlns="http://www.w3.org/2000/svg">
  <circle cx="16" cy="16" r="16" fill="#0F172A"/>
  <path d="M21 11C19.3431 11 18 12.3431 18 14C18 14.2822 18.0389 14.5552 18.1118 14.8136L11 22L13 24L15 22L14 21L16 19L15 18L18.1118 14.8136C18.3758 14.9332 18.6793 15 19 15C20.6569 15 22 13.6569 22 12C22 11.4477 21.5523 11 21 11ZM19.5 13.5C19.2239 13.5 19 13.2761 19 13C19 12.7239 19.2239 12.5 19.5 12.5C19.7761 12.5 20 12.7239 20 13C20 13.2761 19.7761 13.5 19.5 13.5Z" fill="#F1F5F9"/>
</svg>
